# xmcd
#
# Track frame offsets:
#	150
#	5244
#	26890
#	45903
#	66367
#	86510
#	111557
#	131624
#	148546
#	168001
#	185679
#	210318
#	232105
#	256235
#	281162
#
# Disc length: 4013 seconds
#
# Revision: 4
# Processed by: cddbd v1.5.2PL0 Copyright (c) Steve Scherf et al.
# Submitted via: EasyCDDAExtractor 16.0.6.1
#
DISCID=db0fab0f
DTITLE=Vargas Blues Band - R-699 The Best Of
DYEAR=2001
DGENRE=Blues
TTITLE0=El alma
TTITLE1=Luna
TTITLE2=Illegally
TTITLE3=Back to the city
TTITLE4=Chill out (sacalo)
TTITLE5=Blues latino
TTITLE6=Raros peinados nuevos
TTITLE7=Hot wires
TTITLE8=Sangre española
TTITLE9=Whole lotta love
TTITLE10=Amapola negra
TTITLE11=Del sur
TTITLE12=Do you believe in love?
TTITLE13=Buenos Aires blues
TTITLE14=Madrid - Memphis
EXTD=
EXTT0=
EXTT1=
EXTT2=
EXTT3=
EXTT4=
EXTT5=
EXTT6=
EXTT7=
EXTT8=
EXTT9=
EXTT10=
EXTT11=
EXTT12=
EXTT13=
EXTT14=
PLAYORDER=
